<?xml version="1.0" encoding="UTF-8"?>
<svg xmlns="http://www.w3.org/2000/svg" xmlns:xlink="http://www.w3.org/1999/xlink" width="85px" height="85px" viewBox="0 0 85 85" version="1.1">
<g id="surface1">
<path style=" stroke:none;fill-rule:nonzero;fill:rgb(0%,0%,0%);fill-opacity:1;" d="M 66.050781 32.839844 C 63.851562 21.574219 53.980469 13.445312 42.5 13.445312 C 31.019531 13.445312 21.148438 21.574219 18.949219 32.839844 C 9.882812 33.261719 2.871094 40.957031 3.292969 50.023438 C 3.714844 59.09375 11.410156 66.101562 20.476562 65.683594 L 23.046875 65.683594 C 24.113281 65.683594 24.976562 64.816406 24.976562 63.75 C 24.976562 62.683594 24.113281 61.816406 23.046875 61.816406 L 20.476562 61.816406 C 13.542969 61.871094 7.878906 56.292969 7.824219 49.359375 C 7.769531 42.421875 13.347656 36.757812 20.285156 36.703125 L 22.214844 37.148438 L 22.46875 35.023438 C 23.722656 24.957031 32.277344 17.402344 42.421875 17.402344 C 52.566406 17.402344 61.125 24.957031 62.378906 35.023438 L 62.765625 37.109375 L 64.695312 36.703125 C 71.632812 36.757812 77.210938 42.421875 77.15625 49.359375 C 77.101562 56.292969 71.4375 61.871094 64.503906 61.816406 L 61.605469 61.816406 C 60.539062 61.816406 59.675781 62.683594 59.675781 63.75 C 59.675781 64.816406 60.539062 65.683594 61.605469 65.683594 L 64.523438 65.683594 C 73.589844 66.101562 81.285156 59.09375 81.707031 50.023438 C 82.128906 40.957031 75.117188 33.261719 66.050781 32.839844 Z M 66.050781 32.839844 "/>
<path style=" stroke:none;fill-rule:nonzero;fill:rgb(0%,0%,0%);fill-opacity:1;" d="M 43.871094 39.871094 C 43.507812 39.507812 43.015625 39.300781 42.5 39.300781 C 41.984375 39.300781 41.492188 39.507812 41.128906 39.871094 L 30.214844 50.789062 C 29.847656 51.148438 29.640625 51.644531 29.640625 52.160156 C 29.640625 52.675781 29.847656 53.167969 30.214844 53.53125 C 30.96875 54.28125 32.183594 54.28125 32.9375 53.53125 L 40.566406 45.898438 L 40.566406 69.546875 C 40.566406 70.613281 41.433594 71.476562 42.5 71.476562 C 43.566406 71.476562 44.433594 70.613281 44.433594 69.546875 L 44.433594 45.898438 L 52.160156 53.53125 C 52.523438 53.890625 53.015625 54.09375 53.53125 54.089844 C 54.3125 54.085938 55.015625 53.613281 55.308594 52.890625 C 55.605469 52.167969 55.4375 51.335938 54.882812 50.789062 Z M 43.871094 39.871094 "/>
</g>
</svg>
