<?xml version="1.0" encoding="UTF-8"?>
<svg xmlns="http://www.w3.org/2000/svg" xmlns:xlink="http://www.w3.org/1999/xlink" width="75px" height="75px" viewBox="0 0 75 75" version="1.1">
<g id="surface1">
<path style=" stroke:none;fill-rule:nonzero;fill:rgb(0%,0%,0%);fill-opacity:1;" d="M 23.863281 34.089844 L 11.933594 34.089844 C 9.113281 34.089844 6.820312 31.796875 6.820312 28.976562 L 6.820312 17.046875 C 6.820312 14.226562 9.113281 11.933594 11.933594 11.933594 L 23.863281 11.933594 C 26.683594 11.933594 28.976562 14.226562 28.976562 17.046875 L 28.976562 28.976562 C 28.976562 31.796875 26.683594 34.089844 23.863281 34.089844 Z M 11.933594 15.34375 C 10.992188 15.34375 10.226562 16.105469 10.226562 17.046875 L 10.226562 28.976562 C 10.226562 29.917969 10.992188 30.683594 11.933594 30.683594 L 23.863281 30.683594 C 24.804688 30.683594 25.570312 29.917969 25.570312 28.976562 L 25.570312 17.046875 C 25.570312 16.105469 24.804688 15.34375 23.863281 15.34375 Z M 11.933594 15.34375 "/>
<path style=" stroke:none;fill-rule:nonzero;fill:rgb(0%,0%,0%);fill-opacity:1;" d="M 23.863281 63.070312 L 11.933594 63.070312 C 9.113281 63.070312 6.820312 60.773438 6.820312 57.957031 L 6.820312 46.023438 C 6.820312 43.203125 9.113281 40.910156 11.933594 40.910156 L 23.863281 40.910156 C 26.683594 40.910156 28.976562 43.203125 28.976562 46.023438 L 28.976562 57.957031 C 28.976562 60.773438 26.683594 63.070312 23.863281 63.070312 Z M 11.933594 44.320312 C 10.992188 44.320312 10.226562 45.085938 10.226562 46.023438 L 10.226562 57.957031 C 10.226562 58.894531 10.992188 59.660156 11.933594 59.660156 L 23.863281 59.660156 C 24.804688 59.660156 25.570312 58.894531 25.570312 57.957031 L 25.570312 46.023438 C 25.570312 45.085938 24.804688 44.320312 23.863281 44.320312 Z M 11.933594 44.320312 "/>
<path style=" stroke:none;fill-rule:nonzero;fill:rgb(0%,0%,0%);fill-opacity:1;" d="M 66.476562 20.457031 L 35.796875 20.457031 C 34.855469 20.457031 34.09375 19.691406 34.09375 18.75 C 34.09375 17.808594 34.855469 17.046875 35.796875 17.046875 L 66.476562 17.046875 C 67.417969 17.046875 68.183594 17.808594 68.183594 18.75 C 68.183594 19.691406 67.417969 20.457031 66.476562 20.457031 Z M 66.476562 20.457031 "/>
<path style=" stroke:none;fill-rule:nonzero;fill:rgb(0%,0%,0%);fill-opacity:1;" d="M 66.476562 30.683594 L 35.796875 30.683594 C 34.855469 30.683594 34.09375 29.917969 34.09375 28.976562 C 34.09375 28.035156 34.855469 27.273438 35.796875 27.273438 L 66.476562 27.273438 C 67.417969 27.273438 68.183594 28.035156 68.183594 28.976562 C 68.183594 29.917969 67.417969 30.683594 66.476562 30.683594 Z M 66.476562 30.683594 "/>
<path style=" stroke:none;fill-rule:nonzero;fill:rgb(0%,0%,0%);fill-opacity:1;" d="M 66.476562 47.730469 L 35.796875 47.730469 C 34.855469 47.730469 34.09375 46.964844 34.09375 46.023438 C 34.09375 45.082031 34.855469 44.320312 35.796875 44.320312 L 66.476562 44.320312 C 67.417969 44.320312 68.183594 45.082031 68.183594 46.023438 C 68.183594 46.964844 67.417969 47.730469 66.476562 47.730469 Z M 66.476562 47.730469 "/>
<path style=" stroke:none;fill-rule:nonzero;fill:rgb(0%,0%,0%);fill-opacity:1;" d="M 66.476562 57.957031 L 35.796875 57.957031 C 34.855469 57.957031 34.09375 57.191406 34.09375 56.25 C 34.09375 55.308594 34.855469 54.546875 35.796875 54.546875 L 66.476562 54.546875 C 67.417969 54.546875 68.183594 55.308594 68.183594 56.25 C 68.183594 57.191406 67.417969 57.957031 66.476562 57.957031 Z M 66.476562 57.957031 "/>
</g>
</svg>
